<?xml version="1.0" encoding="UTF-8"?>
<svg id="Capa_2" data-name="Capa 2" xmlns="http://www.w3.org/2000/svg" xmlns:xlink="http://www.w3.org/1999/xlink" viewBox="0 0 373.08 232">
  <defs>
    <style>
      .cls-1, .cls-2 {
        fill: #fff;
      }

      .cls-2 {
        stroke-width: 0px;
      }

      .cls-3 {
        clip-path: url(#clippath);
      }
    </style>
    <clipPath id="clippath">
      <path class="cls-2" d="M37.45,133.46c-8.82,0-15.81-2.5-20.98-7.49-5.17-4.99-7.75-12.21-7.75-21.65v-16.95c0-9.44,2.58-16.66,7.75-21.65,5.17-5,12.16-7.49,20.98-7.49s15.38,2.41,20.1,7.23c4.72,4.82,7.08,11.4,7.08,19.74v.62h-11.06v-.93c0-4.89-1.33-8.89-3.98-11.99-2.65-3.1-6.7-4.65-12.14-4.65s-9.82,1.67-12.92,5.01c-3.1,3.34-4.65,7.98-4.65,13.9v17.36c0,5.86,1.55,10.47,4.65,13.85,3.1,3.38,7.41,5.06,12.92,5.06s9.49-1.57,12.14-4.7c2.65-3.13,3.98-7.11,3.98-11.94v-1.76h11.06v1.45c0,8.34-2.36,14.92-7.08,19.74-4.72,4.82-11.42,7.23-20.1,7.23ZM73.21,132.01V59.67h10.65v72.35h-10.65ZM101.16,74.63c-2.14,0-3.94-.69-5.4-2.08-1.46-1.39-2.19-3.19-2.19-5.4s.73-4.01,2.19-5.4c1.46-1.39,3.26-2.08,5.4-2.08s4.03.7,5.45,2.08c1.42,1.39,2.14,3.19,2.14,5.4s-.71,4.01-2.14,5.4c-1.43,1.39-3.24,2.08-5.45,2.08ZM95.53,132.01v-50.95h10.65v50.95h-10.65ZM117.86,152.69v-71.63h10.44v7.34h1.65c1.31-2.27,3.29-4.31,5.94-6.1,2.65-1.79,6.46-2.69,11.42-2.69,4.27,0,8.18,1.03,11.73,3.1,3.55,2.07,6.41,5.05,8.58,8.94,2.17,3.89,3.26,8.6,3.26,14.11v1.55c0,5.51-1.07,10.22-3.2,14.11-2.14,3.89-5,6.87-8.58,8.94-3.58,2.07-7.51,3.1-11.78,3.1-3.31,0-6.1-.41-8.37-1.24-2.27-.83-4.1-1.88-5.48-3.15-1.38-1.27-2.48-2.6-3.31-3.98h-1.65v27.6h-10.65ZM144.21,124.16c4.68,0,8.51-1.48,11.47-4.44,2.96-2.96,4.44-7.2,4.44-12.71v-.93c0-5.44-1.5-9.65-4.5-12.61-3-2.96-6.81-4.44-11.42-4.44s-8.32,1.48-11.32,4.44c-3,2.96-4.5,7.17-4.5,12.61v.93c0,5.51,1.5,9.75,4.5,12.71,3,2.96,6.77,4.44,11.32,4.44ZM203.33,133.46c-5.17,0-9.68-1.09-13.54-3.26-3.86-2.17-6.87-5.24-9.04-9.2-2.17-3.96-3.26-8.56-3.26-13.8v-1.24c0-5.31,1.07-9.94,3.2-13.9,2.13-3.96,5.12-7.03,8.94-9.2,3.82-2.17,8.25-3.26,13.28-3.26s9.18,1.08,12.87,3.26c3.69,2.17,6.56,5.19,8.63,9.04,2.07,3.86,3.1,8.37,3.1,13.54v4.03h-39.17c.14,4.48,1.64,8.05,4.5,10.7,2.86,2.65,6.42,3.98,10.7,3.98,4,0,7.01-.89,9.04-2.69,2.03-1.79,3.6-3.86,4.7-6.2l8.79,4.55c-.97,1.93-2.36,3.96-4.19,6.1-1.83,2.14-4.22,3.93-7.18,5.37-2.96,1.45-6.75,2.17-11.37,2.17ZM188.45,101.32h28.22c-.28-3.86-1.65-6.87-4.13-9.04s-5.72-3.26-9.72-3.26-7.25,1.09-9.77,3.26c-2.52,2.17-4.05,5.19-4.6,9.04ZM252.01,133.46c-3.65,0-6.91-.62-9.77-1.86-2.86-1.24-5.13-3.07-6.82-5.48-1.69-2.41-2.53-5.34-2.53-8.79s.84-6.42,2.53-8.73c1.69-2.31,4-4.05,6.92-5.22,2.93-1.17,6.25-1.76,9.97-1.76h15.5v-3.31c0-2.96-.9-5.34-2.69-7.13-1.79-1.79-4.55-2.69-8.27-2.69s-6.44.86-8.37,2.58c-1.93,1.72-3.2,3.96-3.82,6.72l-9.92-3.2c.83-2.75,2.15-5.25,3.98-7.49,1.83-2.24,4.25-4.05,7.29-5.43,3.03-1.38,6.68-2.07,10.96-2.07,6.61,0,11.82,1.69,15.61,5.06,3.79,3.38,5.68,8.17,5.68,14.37v20.98c0,2.07.96,3.1,2.89,3.1h4.34v8.89h-7.96c-2.41,0-4.38-.62-5.89-1.86-1.52-1.24-2.27-2.93-2.27-5.06v-.31h-1.55c-.55,1.03-1.38,2.24-2.48,3.62-1.1,1.38-2.72,2.57-4.86,3.57-2.14,1-4.96,1.5-8.48,1.5ZM253.56,124.68c4.27,0,7.72-1.22,10.34-3.67,2.62-2.44,3.93-5.8,3.93-10.08v-1.03h-14.88c-2.83,0-5.1.6-6.82,1.81-1.72,1.21-2.58,2.98-2.58,5.32s.89,4.2,2.69,5.58c1.79,1.38,4.24,2.07,7.34,2.07ZM291.7,132.01V59.67h10.65v72.35h-10.65ZM337.9,133.46c-5.1,0-9.63-1.05-13.59-3.15-3.96-2.1-7.08-5.12-9.35-9.04-2.27-3.93-3.41-8.58-3.41-13.95v-1.55c0-5.37,1.14-10.01,3.41-13.9,2.27-3.89,5.39-6.91,9.35-9.04,3.96-2.13,8.49-3.2,13.59-3.2s9.65,1.07,13.64,3.2c4,2.14,7.13,5.15,9.41,9.04,2.27,3.89,3.41,8.53,3.41,13.9v1.55c0,5.37-1.14,10.03-3.41,13.95-2.27,3.93-5.41,6.94-9.41,9.04-4,2.1-8.54,3.15-13.64,3.15ZM337.9,123.95c4.68,0,8.49-1.5,11.42-4.5,2.93-3,4.39-7.15,4.39-12.45v-.93c0-5.3-1.45-9.46-4.34-12.45s-6.72-4.5-11.47-4.5-8.39,1.5-11.32,4.5c-2.93,3-4.39,7.15-4.39,12.45v.93c0,5.31,1.46,9.46,4.39,12.45,2.93,3,6.7,4.5,11.32,4.5Z"/>
    </clipPath>
  </defs>
  <g id="Capa_1-2" data-name="Capa 1">
    <g>
      <g>
        <path class="cls-2" d="M114.84,57.4c.16-4.02,2.64-8.29,7.5-11.1,10.93-6.33,21.88-12.63,32.82-18.95,6.67-3.85,13.34-7.71,20.02-11.56,2.61-1.5,6.08-1.11,8.34.9.81.72.81.73-.1,1.26-4.01,2.32-8.02,4.63-12.03,6.94-8.99,5.19-17.98,10.39-26.98,15.58-2.35,1.36-4.71,2.69-7.05,4.06-1.51.88-1.53,1.75-.11,2.75,5.22,3.69,7.37,10.74,5.06,16.59-2.48,6.28-8.61,9.97-15.12,9.11-7.16-.95-12.46-6.95-12.34-15.58ZM129,67.95c11.83-.03,11.58-18.18-.03-18.18-11.62,0-11.77,18.21.03,18.18ZM145.19,37.78c1.63.03,1.59-2.46.03-2.48-1.6-.02-1.63,2.45-.03,2.48Z"/>
        <path class="cls-2" d="M129.03,0c7.93.01,14.51,6.82,14.17,14.76-.15,3.64-1.75,7.17-4.37,9.7-1.3,1.26-3.45,2-1.86,3.84.82.95,5.25,2.05,5.46,3.3.15.9-5.35,3.24-6.25,3.16-1.36-.13-3.65-2.07-4.86-2.75-1.22-.69-2.43-1.37-3.64-2.07-4.67-2.69-9.95-5.22-11.98-10.59C112.18,10.07,119.14-.01,129.03,0ZM128.96,5.15c-11.82.02-11.57,18.16.05,18.13,11.64-.03,11.76-18.15-.05-18.13Z"/>
        <path class="cls-2" d="M178.74,58.2c-2.8-.05-5.1-1.8-7.43-3.15-2.7-1.56-5.41-3.12-8.11-4.68-1.46-.84-15.49-7.96-15.24-8.95.17-.67,4.68-3.05,5.22-3.11,1.72-.19,3.38,1.31,4.89,2.18,4.07,2.35,8.14,4.69,12.21,7.03,3.67,2.12,7.35,4.24,11.02,6.37,1.52.88,3.06,1.02,2.27,2.44-.75,1.34-3.49,1.88-4.81,1.87Z"/>
      </g>
      <g>
        <path class="cls-1" d="M37.45,133.46c-8.82,0-15.81-2.5-20.98-7.49-5.17-4.99-7.75-12.21-7.75-21.65v-16.95c0-9.44,2.58-16.66,7.75-21.65,5.17-5,12.16-7.49,20.98-7.49s15.38,2.41,20.1,7.23c4.72,4.82,7.08,11.4,7.08,19.74v.62h-11.06v-.93c0-4.89-1.33-8.89-3.98-11.99-2.65-3.1-6.7-4.65-12.14-4.65s-9.82,1.67-12.92,5.01c-3.1,3.34-4.65,7.98-4.65,13.9v17.36c0,5.86,1.55,10.47,4.65,13.85,3.1,3.38,7.41,5.06,12.92,5.06s9.49-1.57,12.14-4.7c2.65-3.13,3.98-7.11,3.98-11.94v-1.76h11.06v1.45c0,8.34-2.36,14.92-7.08,19.74-4.72,4.82-11.42,7.23-20.1,7.23ZM73.21,132.01V59.67h10.65v72.35h-10.65ZM101.16,74.63c-2.14,0-3.94-.69-5.4-2.08-1.46-1.39-2.19-3.19-2.19-5.4s.73-4.01,2.19-5.4c1.46-1.39,3.26-2.08,5.4-2.08s4.03.7,5.45,2.08c1.42,1.39,2.14,3.19,2.14,5.4s-.71,4.01-2.14,5.4c-1.43,1.39-3.24,2.08-5.45,2.08ZM95.53,132.01v-50.95h10.65v50.95h-10.65ZM117.86,152.69v-71.63h10.44v7.34h1.65c1.31-2.27,3.29-4.31,5.94-6.1,2.65-1.79,6.46-2.69,11.42-2.69,4.27,0,8.18,1.03,11.73,3.1,3.55,2.07,6.41,5.05,8.58,8.94,2.17,3.89,3.26,8.6,3.26,14.11v1.55c0,5.51-1.07,10.22-3.2,14.11-2.14,3.89-5,6.87-8.58,8.94-3.58,2.07-7.51,3.1-11.78,3.1-3.31,0-6.1-.41-8.37-1.24-2.27-.83-4.1-1.88-5.48-3.15-1.38-1.27-2.48-2.6-3.31-3.98h-1.65v27.6h-10.65ZM144.21,124.16c4.68,0,8.51-1.48,11.47-4.44,2.96-2.96,4.44-7.2,4.44-12.71v-.93c0-5.44-1.5-9.65-4.5-12.61-3-2.96-6.81-4.44-11.42-4.44s-8.32,1.48-11.32,4.44c-3,2.96-4.5,7.17-4.5,12.61v.93c0,5.51,1.5,9.75,4.5,12.71,3,2.96,6.77,4.44,11.32,4.44ZM203.33,133.46c-5.17,0-9.68-1.09-13.54-3.26-3.86-2.17-6.87-5.24-9.04-9.2-2.17-3.96-3.26-8.56-3.26-13.8v-1.24c0-5.31,1.07-9.94,3.2-13.9,2.13-3.96,5.12-7.03,8.94-9.2,3.82-2.17,8.25-3.26,13.28-3.26s9.18,1.08,12.87,3.26c3.69,2.17,6.56,5.19,8.63,9.04,2.07,3.86,3.1,8.37,3.1,13.54v4.03h-39.17c.14,4.48,1.64,8.05,4.5,10.7,2.86,2.65,6.42,3.98,10.7,3.98,4,0,7.01-.89,9.04-2.69,2.03-1.79,3.6-3.86,4.7-6.2l8.79,4.55c-.97,1.93-2.36,3.96-4.19,6.1-1.83,2.14-4.22,3.93-7.18,5.37-2.96,1.45-6.75,2.17-11.37,2.17ZM188.45,101.32h28.22c-.28-3.86-1.65-6.87-4.13-9.04s-5.72-3.26-9.72-3.26-7.25,1.09-9.77,3.26c-2.52,2.17-4.05,5.19-4.6,9.04ZM252.01,133.46c-3.65,0-6.91-.62-9.77-1.86-2.86-1.24-5.13-3.07-6.82-5.48-1.69-2.41-2.53-5.34-2.53-8.79s.84-6.42,2.53-8.73c1.69-2.31,4-4.05,6.92-5.22,2.93-1.17,6.25-1.76,9.97-1.76h15.5v-3.31c0-2.96-.9-5.34-2.69-7.13-1.79-1.79-4.55-2.69-8.27-2.69s-6.44.86-8.37,2.58c-1.93,1.72-3.2,3.96-3.82,6.72l-9.92-3.2c.83-2.75,2.15-5.25,3.98-7.49,1.83-2.24,4.25-4.05,7.29-5.43,3.03-1.38,6.68-2.07,10.96-2.07,6.61,0,11.82,1.69,15.61,5.06,3.79,3.38,5.68,8.17,5.68,14.37v20.98c0,2.07.96,3.1,2.89,3.1h4.34v8.89h-7.96c-2.41,0-4.38-.62-5.89-1.86-1.52-1.24-2.27-2.93-2.27-5.06v-.31h-1.55c-.55,1.03-1.38,2.24-2.48,3.62-1.1,1.38-2.72,2.57-4.86,3.57-2.14,1-4.96,1.5-8.48,1.5ZM253.56,124.68c4.27,0,7.72-1.22,10.34-3.67,2.62-2.44,3.93-5.8,3.93-10.08v-1.03h-14.88c-2.83,0-5.1.6-6.82,1.81-1.72,1.21-2.58,2.98-2.58,5.32s.89,4.2,2.69,5.58c1.79,1.38,4.24,2.07,7.34,2.07ZM291.7,132.01V59.67h10.65v72.35h-10.65ZM337.9,133.46c-5.1,0-9.63-1.05-13.59-3.15-3.96-2.1-7.08-5.12-9.35-9.04-2.27-3.93-3.41-8.58-3.41-13.95v-1.55c0-5.37,1.14-10.01,3.41-13.9,2.27-3.89,5.39-6.91,9.35-9.04,3.96-2.13,8.49-3.2,13.59-3.2s9.65,1.07,13.64,3.2c4,2.14,7.13,5.15,9.41,9.04,2.27,3.89,3.41,8.53,3.41,13.9v1.55c0,5.37-1.14,10.03-3.41,13.95-2.27,3.93-5.41,6.94-9.41,9.04-4,2.1-8.54,3.15-13.64,3.15ZM337.9,123.95c4.68,0,8.49-1.5,11.42-4.5,2.93-3,4.39-7.15,4.39-12.45v-.93c0-5.3-1.45-9.46-4.34-12.45s-6.72-4.5-11.47-4.5-8.39,1.5-11.32,4.5c-2.93,3-4.39,7.15-4.39,12.45v.93c0,5.31,1.46,9.46,4.39,12.45,2.93,3,6.7,4.5,11.32,4.5Z"/>
        <g class="cls-3">
          <rect class="cls-2" x="-5.16" y="41.81" width="369.45" height="110.79"/>
        </g>
      </g>
    </g>
  </g>
</svg>