<?xml version="1.0" encoding="UTF-8"?>
<svg id="Capa_1" data-name="Capa 1" xmlns="http://www.w3.org/2000/svg" xmlns:xlink="http://www.w3.org/1999/xlink" viewBox="0 0 427 427">
  <defs>
    <style>
      .cls-1, .cls-2 {
        fill: #fff;
      }

      .cls-2 {
        stroke-width: 0px;
      }

      .cls-3 {
        clip-path: url(#clippath);
      }
    </style>
    <clipPath id="clippath">
      <path class="cls-2" d="M98.87,239.99c-6.56,0-11.76-1.86-15.61-5.57-3.84-3.72-5.77-9.08-5.77-16.11v-12.61c0-7.02,1.92-12.39,5.77-16.11,3.84-3.72,9.05-5.57,15.61-5.57s11.44,1.79,14.95,5.38c3.51,3.59,5.27,8.48,5.27,14.68v.46h-8.23v-.69c0-3.64-.99-6.61-2.96-8.92-1.97-2.31-4.98-3.46-9.03-3.46s-7.3,1.24-9.61,3.73c-2.31,2.49-3.46,5.93-3.46,10.34v12.92c0,4.36,1.15,7.79,3.46,10.3,2.31,2.51,5.51,3.77,9.61,3.77s7.06-1.17,9.03-3.5c1.97-2.33,2.96-5.29,2.96-8.88v-1.31h8.23v1.08c0,6.2-1.76,11.1-5.27,14.68-3.51,3.59-8.49,5.38-14.95,5.38ZM125.47,238.91v-53.81h7.92v53.81h-7.92ZM146.26,196.23c-1.59,0-2.93-.52-4.02-1.55-1.09-1.03-1.63-2.37-1.63-4.02s.54-2.98,1.63-4.02c1.09-1.03,2.43-1.55,4.02-1.55s2.99.52,4.06,1.55c1.06,1.03,1.59,2.37,1.59,4.02s-.53,2.98-1.59,4.02c-1.06,1.03-2.41,1.55-4.06,1.55ZM142.08,238.91v-37.9h7.92v37.9h-7.92ZM158.68,254.29v-53.28h7.76v5.46h1.23c.97-1.69,2.45-3.2,4.42-4.54,1.97-1.33,4.8-2,8.49-2,3.18,0,6.09.77,8.73,2.31,2.64,1.54,4.77,3.75,6.38,6.65,1.61,2.9,2.42,6.39,2.42,10.49v1.15c0,4.1-.8,7.6-2.38,10.49-1.59,2.9-3.72,5.11-6.38,6.65-2.67,1.54-5.59,2.31-8.76,2.31-2.46,0-4.54-.31-6.23-.92-1.69-.61-3.05-1.4-4.07-2.34-1.03-.95-1.85-1.93-2.46-2.96h-1.23v20.53h-7.92ZM178.29,233.07c3.48,0,6.33-1.1,8.53-3.31,2.2-2.2,3.31-5.36,3.31-9.46v-.69c0-4.05-1.11-7.17-3.34-9.38-2.23-2.2-5.06-3.31-8.5-3.31s-6.19,1.1-8.42,3.31c-2.23,2.2-3.34,5.33-3.34,9.38v.69c0,4.1,1.11,7.25,3.34,9.46,2.23,2.2,5.04,3.31,8.42,3.31ZM222.26,239.99c-3.84,0-7.2-.81-10.07-2.42-2.87-1.61-5.11-3.89-6.73-6.84-1.61-2.95-2.42-6.37-2.42-10.26v-.92c0-3.95.79-7.39,2.38-10.34,1.59-2.95,3.81-5.23,6.65-6.84,2.84-1.61,6.14-2.42,9.88-2.42s6.83.81,9.57,2.42c2.74,1.61,4.88,3.86,6.42,6.73,1.54,2.87,2.31,6.23,2.31,10.07v3h-29.14c.1,3.33,1.22,5.98,3.34,7.96,2.13,1.97,4.78,2.96,7.96,2.96,2.97,0,5.21-.67,6.73-2,1.51-1.33,2.68-2.87,3.5-4.61l6.53,3.38c-.72,1.44-1.76,2.95-3.11,4.54-1.36,1.59-3.14,2.92-5.34,4-2.2,1.08-5.02,1.61-8.46,1.61ZM211.19,216.08h20.99c-.21-2.87-1.23-5.11-3.07-6.73-1.85-1.61-4.25-2.42-7.23-2.42s-5.39.81-7.26,2.42c-1.87,1.61-3.01,3.86-3.42,6.73ZM258.47,239.99c-2.72,0-5.14-.46-7.26-1.38-2.13-.92-3.82-2.28-5.07-4.07-1.26-1.79-1.88-3.97-1.88-6.53s.63-4.78,1.88-6.5c1.26-1.72,2.97-3.01,5.15-3.88,2.18-.87,4.65-1.31,7.42-1.31h11.53v-2.46c0-2.2-.67-3.97-2-5.3-1.33-1.33-3.38-2-6.15-2s-4.79.64-6.23,1.92c-1.44,1.28-2.38,2.95-2.84,5l-7.38-2.38c.61-2.05,1.6-3.91,2.96-5.57,1.36-1.67,3.16-3.01,5.42-4.04,2.25-1.02,4.97-1.54,8.15-1.54,4.92,0,8.79,1.26,11.61,3.77,2.82,2.51,4.23,6.07,4.23,10.69v15.61c0,1.54.72,2.31,2.15,2.31h3.23v6.61h-5.92c-1.79,0-3.26-.46-4.38-1.38-1.13-.92-1.69-2.18-1.69-3.77v-.23h-1.15c-.41.77-1.03,1.67-1.85,2.69-.82,1.03-2.03,1.91-3.61,2.65-1.59.74-3.69,1.11-6.3,1.11ZM259.62,233.45c3.18,0,5.74-.91,7.69-2.73,1.95-1.82,2.92-4.32,2.92-7.5v-.77h-11.07c-2.1,0-3.79.45-5.07,1.35-1.28.9-1.92,2.22-1.92,3.96s.67,3.13,2,4.15c1.33,1.03,3.15,1.54,5.46,1.54ZM287.99,238.91v-53.81h7.92v53.81h-7.92ZM322.35,239.99c-3.79,0-7.16-.78-10.11-2.34-2.95-1.56-5.27-3.81-6.96-6.73-1.69-2.92-2.54-6.38-2.54-10.38v-1.15c0-4,.85-7.44,2.54-10.34,1.69-2.89,4.01-5.14,6.96-6.73,2.95-1.59,6.32-2.38,10.11-2.38s7.17.79,10.15,2.38c2.97,1.59,5.3,3.83,7,6.73,1.69,2.9,2.54,6.34,2.54,10.34v1.15c0,4-.85,7.46-2.54,10.38-1.69,2.92-4.02,5.16-7,6.73-2.97,1.56-6.36,2.34-10.15,2.34ZM322.35,232.92c3.48,0,6.32-1.11,8.5-3.34,2.18-2.23,3.27-5.32,3.27-9.26v-.69c0-3.95-1.08-7.03-3.23-9.26s-5-3.34-8.53-3.34-6.24,1.11-8.42,3.34c-2.18,2.23-3.27,5.32-3.27,9.26v.69c0,3.95,1.09,7.03,3.27,9.26,2.18,2.23,4.98,3.34,8.42,3.34Z"/>
    </clipPath>
  </defs>
  <g>
    <path class="cls-2" d="M156.43,183.41c.12-2.99,1.96-6.17,5.58-8.26,8.13-4.71,16.27-9.4,24.41-14.09,4.96-2.86,9.92-5.74,14.89-8.6,1.94-1.12,4.52-.82,6.2.67.6.53.61.54-.08.94-2.98,1.73-5.97,3.44-8.95,5.16-6.69,3.86-13.38,7.73-20.06,11.59-1.75,1.01-3.5,2-5.24,3.02-1.12.66-1.14,1.3-.08,2.05,3.88,2.74,5.48,7.99,3.76,12.34-1.84,4.67-6.4,7.41-11.25,6.77-5.32-.7-9.27-5.17-9.18-11.59ZM166.97,191.26c8.8-.03,8.61-13.52-.02-13.52-8.64,0-8.76,13.55.02,13.52ZM179.01,168.82c1.21.02,1.18-1.83.02-1.85-1.19-.02-1.21,1.83-.02,1.85Z"/>
    <path class="cls-2" d="M166.99,140.72c5.9,0,10.79,5.07,10.54,10.98-.12,2.71-1.3,5.33-3.25,7.22-.97.94-2.56,1.49-1.38,2.86.61.7,3.9,1.52,4.06,2.45.11.67-3.98,2.41-4.65,2.35-1.01-.09-2.72-1.54-3.62-2.04-.9-.51-1.81-1.02-2.71-1.54-3.47-2-7.4-3.88-8.91-7.88-2.61-6.9,2.56-14.4,9.92-14.39ZM166.94,144.55c-8.79.01-8.6,13.51.04,13.48,8.65-.02,8.74-13.5-.04-13.48Z"/>
    <path class="cls-2" d="M203.97,184.01c-2.08-.04-3.79-1.34-5.53-2.34-2.01-1.16-4.02-2.32-6.03-3.48-1.09-.63-11.52-5.92-11.34-6.66.12-.5,3.48-2.27,3.88-2.31,1.28-.14,2.52.97,3.64,1.62,3.02,1.75,6.05,3.49,9.08,5.23,2.73,1.58,5.47,3.15,8.19,4.74,1.13.65,2.28.76,1.69,1.81-.56,1-2.6,1.4-3.58,1.39Z"/>
  </g>
  <g>
    <path class="cls-1" d="M98.87,239.99c-6.56,0-11.76-1.86-15.61-5.57-3.84-3.72-5.77-9.08-5.77-16.11v-12.61c0-7.02,1.92-12.39,5.77-16.11,3.84-3.72,9.05-5.57,15.61-5.57s11.44,1.79,14.95,5.38c3.51,3.59,5.27,8.48,5.27,14.68v.46h-8.23v-.69c0-3.64-.99-6.61-2.96-8.92-1.97-2.31-4.98-3.46-9.03-3.46s-7.3,1.24-9.61,3.73c-2.31,2.49-3.46,5.93-3.46,10.34v12.92c0,4.36,1.15,7.79,3.46,10.3,2.31,2.51,5.51,3.77,9.61,3.77s7.06-1.17,9.03-3.5c1.97-2.33,2.96-5.29,2.96-8.88v-1.31h8.23v1.08c0,6.2-1.76,11.1-5.27,14.68-3.51,3.59-8.49,5.38-14.95,5.38ZM125.47,238.91v-53.81h7.92v53.81h-7.92ZM146.26,196.23c-1.59,0-2.93-.52-4.02-1.55-1.09-1.03-1.63-2.37-1.63-4.02s.54-2.98,1.63-4.02c1.09-1.03,2.43-1.55,4.02-1.55s2.99.52,4.06,1.55c1.06,1.03,1.59,2.37,1.59,4.02s-.53,2.98-1.59,4.02c-1.06,1.03-2.41,1.55-4.06,1.55ZM142.08,238.91v-37.9h7.92v37.9h-7.92ZM158.68,254.29v-53.28h7.76v5.46h1.23c.97-1.69,2.45-3.2,4.42-4.54,1.97-1.33,4.8-2,8.49-2,3.18,0,6.09.77,8.73,2.31,2.64,1.54,4.77,3.75,6.38,6.65,1.61,2.9,2.42,6.39,2.42,10.49v1.15c0,4.1-.8,7.6-2.38,10.49-1.59,2.9-3.72,5.11-6.38,6.65-2.67,1.54-5.59,2.31-8.76,2.31-2.46,0-4.54-.31-6.23-.92-1.69-.61-3.05-1.4-4.07-2.34-1.03-.95-1.85-1.93-2.46-2.96h-1.23v20.53h-7.92ZM178.29,233.07c3.48,0,6.33-1.1,8.53-3.31,2.2-2.2,3.31-5.36,3.31-9.46v-.69c0-4.05-1.11-7.17-3.34-9.38-2.23-2.2-5.06-3.31-8.5-3.31s-6.19,1.1-8.42,3.31c-2.23,2.2-3.34,5.33-3.34,9.38v.69c0,4.1,1.11,7.25,3.34,9.46,2.23,2.2,5.04,3.31,8.42,3.31ZM222.26,239.99c-3.84,0-7.2-.81-10.07-2.42-2.87-1.61-5.11-3.89-6.73-6.84-1.61-2.95-2.42-6.37-2.42-10.26v-.92c0-3.95.79-7.39,2.38-10.34,1.59-2.95,3.81-5.23,6.65-6.84,2.84-1.61,6.14-2.42,9.88-2.42s6.83.81,9.57,2.42c2.74,1.61,4.88,3.86,6.42,6.73,1.54,2.87,2.31,6.23,2.31,10.07v3h-29.14c.1,3.33,1.22,5.98,3.34,7.96,2.13,1.97,4.78,2.96,7.96,2.96,2.97,0,5.21-.67,6.73-2,1.51-1.33,2.68-2.87,3.5-4.61l6.53,3.38c-.72,1.44-1.76,2.95-3.11,4.54-1.36,1.59-3.14,2.92-5.34,4-2.2,1.08-5.02,1.61-8.46,1.61ZM211.19,216.08h20.99c-.21-2.87-1.23-5.11-3.07-6.73-1.85-1.61-4.25-2.42-7.23-2.42s-5.39.81-7.26,2.42c-1.87,1.61-3.01,3.86-3.42,6.73ZM258.47,239.99c-2.72,0-5.14-.46-7.26-1.38-2.13-.92-3.82-2.28-5.07-4.07-1.26-1.79-1.88-3.97-1.88-6.53s.63-4.78,1.88-6.5c1.26-1.72,2.97-3.01,5.15-3.88,2.18-.87,4.65-1.31,7.42-1.31h11.53v-2.46c0-2.2-.67-3.97-2-5.3-1.33-1.33-3.38-2-6.15-2s-4.79.64-6.23,1.92c-1.44,1.28-2.38,2.95-2.84,5l-7.38-2.38c.61-2.05,1.6-3.91,2.96-5.57,1.36-1.67,3.16-3.01,5.42-4.04,2.25-1.02,4.97-1.54,8.15-1.54,4.92,0,8.79,1.26,11.61,3.77,2.82,2.51,4.23,6.07,4.23,10.69v15.61c0,1.54.72,2.31,2.15,2.31h3.23v6.61h-5.92c-1.79,0-3.26-.46-4.38-1.38-1.13-.92-1.69-2.18-1.69-3.77v-.23h-1.15c-.41.77-1.03,1.67-1.85,2.69-.82,1.03-2.03,1.91-3.61,2.65-1.59.74-3.69,1.11-6.3,1.11ZM259.62,233.45c3.18,0,5.74-.91,7.69-2.73,1.95-1.82,2.92-4.32,2.92-7.5v-.77h-11.07c-2.1,0-3.79.45-5.07,1.35-1.28.9-1.92,2.22-1.92,3.96s.67,3.13,2,4.15c1.33,1.03,3.15,1.54,5.46,1.54ZM287.99,238.91v-53.81h7.92v53.81h-7.92ZM322.35,239.99c-3.79,0-7.16-.78-10.11-2.34-2.95-1.56-5.27-3.81-6.96-6.73-1.69-2.92-2.54-6.38-2.54-10.38v-1.15c0-4,.85-7.44,2.54-10.34,1.69-2.89,4.01-5.14,6.96-6.73,2.95-1.59,6.32-2.38,10.11-2.38s7.17.79,10.15,2.38c2.97,1.59,5.3,3.83,7,6.73,1.69,2.9,2.54,6.34,2.54,10.34v1.15c0,4-.85,7.46-2.54,10.38-1.69,2.92-4.02,5.16-7,6.73-2.97,1.56-6.36,2.34-10.15,2.34ZM322.35,232.92c3.48,0,6.32-1.11,8.5-3.34,2.18-2.23,3.27-5.32,3.27-9.26v-.69c0-3.95-1.08-7.03-3.23-9.26s-5-3.34-8.53-3.34-6.24,1.11-8.42,3.34c-2.18,2.23-3.27,5.32-3.27,9.26v.69c0,3.95,1.09,7.03,3.27,9.26,2.18,2.23,4.98,3.34,8.42,3.34Z"/>
    <g class="cls-3">
      <rect class="cls-2" x="67.18" y="171.81" width="274.8" height="82.41"/>
    </g>
  </g>
</svg>